<?xml version="1.0" encoding="UTF-8"?>
<svg xmlns="http://www.w3.org/2000/svg" xmlns:xlink="http://www.w3.org/1999/xlink" width="698.79pt" height="189.6pt" viewBox="0 0 698.79 189.6" version="1.1">
<defs>
<clipPath id="clip1">
  <path d="M 334 158 L 367 158 L 367 189.601563 L 334 189.601563 Z M 334 158 "/>
</clipPath>
<clipPath id="clip2">
  <path d="M 478 0 L 698.789063 0 L 698.789063 95 L 478 95 Z M 478 0 "/>
</clipPath>
</defs>
<g id="surface1">
<path style=" stroke:none;fill-rule:nonzero;fill:rgb(74.099731%,3.49884%,14.898682%);fill-opacity:1;" d="M 168.734375 75.472656 L 168.734375 94.761719 L 106.054688 94.761719 L 77.894531 75.472656 Z M 168.734375 75.472656 "/>
<path style=" stroke:none;fill-rule:nonzero;fill:rgb(74.099731%,3.49884%,14.898682%);fill-opacity:1;" d="M 199.457031 100.34375 L 199.457031 119.574219 L 142.363281 119.574219 L 114.253906 100.371094 Z M 199.457031 100.34375 "/>
<path style=" stroke:none;fill-rule:nonzero;fill:rgb(74.099731%,3.49884%,14.898682%);fill-opacity:1;" d="M 168.734375 50.613281 L 168.734375 69.824219 L 69.722656 69.941406 L 41.542969 50.613281 Z M 168.734375 50.613281 "/>
<path style=" stroke:none;fill-rule:nonzero;fill:rgb(74.099731%,3.49884%,14.898682%);fill-opacity:1;" d="M 168.734375 25.753906 L 168.734375 44.964844 L 33.382813 44.964844 L 5.171875 25.753906 Z M 168.734375 25.753906 "/>
<path style=" stroke:none;fill-rule:nonzero;fill:rgb(74.099731%,3.49884%,14.898682%);fill-opacity:1;" d="M 349.316406 155.855469 L 344.390625 168.300781 L 285.332031 168.300781 L 265.457031 155.855469 Z M 349.316406 155.855469 "/>
<path style=" stroke:none;fill-rule:nonzero;fill:rgb(74.099731%,3.49884%,14.898682%);fill-opacity:1;" d="M 351.265625 155.855469 L 356.191406 168.300781 L 414.683594 168.300781 L 434.558594 155.855469 Z M 351.265625 155.855469 "/>
<path style=" stroke:none;fill-rule:nonzero;fill:rgb(74.099731%,3.49884%,14.898682%);fill-opacity:1;" d="M 330.441406 169.828125 L 340.316406 177.058594 L 319.148438 177.058594 L 307.246094 169.828125 Z M 330.441406 169.828125 "/>
<path style=" stroke:none;fill-rule:nonzero;fill:rgb(74.099731%,3.49884%,14.898682%);fill-opacity:1;" d="M 369.574219 169.828125 L 359.699219 177.058594 L 380.867188 177.058594 L 392.769531 169.828125 Z M 369.574219 169.828125 "/>
<path style=" stroke:none;fill-rule:nonzero;fill:rgb(74.099731%,3.49884%,14.898682%);fill-opacity:1;" d="M 540.015625 75.472656 L 540.015625 94.761719 L 595.660156 94.761719 L 623.820313 75.472656 Z M 540.015625 75.472656 "/>
<path style=" stroke:none;fill-rule:nonzero;fill:rgb(74.099731%,3.49884%,14.898682%);fill-opacity:1;" d="M 507.925781 100.34375 L 498.570313 119.574219 L 559.351563 119.574219 L 587.460938 100.371094 Z M 507.925781 100.34375 "/>
<path style=" stroke:none;fill-rule:nonzero;fill:rgb(74.099731%,3.49884%,14.898682%);fill-opacity:1;" d="M 540.015625 50.613281 L 540.015625 69.824219 L 631.992188 69.941406 L 660.171875 50.613281 Z M 540.015625 50.613281 "/>
<path style=" stroke:none;fill-rule:nonzero;fill:rgb(74.099731%,3.49884%,14.898682%);fill-opacity:1;" d="M 540.015625 25.753906 L 540.015625 44.964844 L 668.328125 44.964844 L 696.539063 25.753906 Z M 540.015625 25.753906 "/>
<g clip-path="url(#clip1)" clip-rule="nonzero">
<path style=" stroke:none;fill-rule:nonzero;fill:rgb(8.198547%,23.899841%,45.098877%);fill-opacity:1;" d="M 357.566406 176.417969 L 360.542969 189.601563 L 350.261719 182.066406 L 340.125 189.601563 L 342.933594 176.597656 L 334 169.828125 L 345.742188 169.828125 L 350.261719 158.484375 L 354.78125 169.828125 L 366.5 169.828125 "/>
</g>
<path style=" stroke:none;fill-rule:nonzero;fill:rgb(8.198547%,23.899841%,45.098877%);fill-opacity:1;" d="M 174.082031 94.761719 L 199.453125 94.761719 L 199.453125 19.207031 L 210.652344 19.207031 C 210.726563 19.160156 210.585938 19.105469 210.652344 19.054688 L 210.652344 0 L 24.429688 0 L 0 19.9375 L 174.082031 20.121094 "/>
<path style=" stroke:none;fill-rule:nonzero;fill:rgb(8.198547%,23.899841%,45.098877%);fill-opacity:1;" d="M 249.773438 75.394531 L 236.640625 75.394531 L 236.640625 20.28125 L 249.773438 20.28125 Z M 259.121094 0.00390625 L 228.414063 0.00390625 L 214.214844 13.644531 L 214.214844 82.09375 L 227.832031 94.765625 L 259.703125 94.765625 L 272.753906 82.09375 L 272.753906 13.644531 "/>
<path style=" stroke:none;fill-rule:nonzero;fill:rgb(8.198547%,23.899841%,45.098877%);fill-opacity:1;" d="M 314.046875 44.039063 L 301.78125 44.039063 L 301.78125 19.5 L 314.046875 19.5 Z M 323.382813 0.00390625 L 277.765625 0.00390625 L 277.765625 94.765625 L 301.3125 94.765625 L 301.3125 62.472656 L 323.382813 62.472656 L 337.304688 49.785156 L 337.304688 13.554688 "/>
<path style=" stroke:none;fill-rule:nonzero;fill:rgb(8.198547%,23.899841%,45.098877%);fill-opacity:1;" d="M 409.582031 34.683594 L 409.582031 13.550781 L 396.894531 0 L 363.027344 0 L 350.429688 13.550781 L 350.429688 81.546875 L 363.027344 94.761719 L 396.894531 94.761719 L 409.582031 81.546875 L 409.582031 45.507813 L 378.269531 45.507813 L 378.269531 64.554688 L 386.699219 64.554688 L 386.699219 76.144531 L 373.878906 76.144531 L 373.878906 19.523438 L 386.613281 19.523438 L 386.613281 34.683594 "/>
<path style=" stroke:none;fill-rule:nonzero;fill:rgb(8.198547%,23.899841%,45.098877%);fill-opacity:1;" d="M 451.070313 75.257813 L 437.664063 75.257813 L 437.664063 0.00390625 L 414.589844 0.00390625 L 414.769531 81.492188 L 427.371094 94.761719 L 461.359375 94.761719 L 473.957031 81.492188 L 473.957031 0.00390625 L 451.164063 0.00390625 "/>
<g clip-path="url(#clip2)" clip-rule="nonzero">
<path style=" stroke:none;fill-rule:nonzero;fill:rgb(8.198547%,23.899841%,45.098877%);fill-opacity:1;" d="M 698.792969 20.0625 L 532.441406 20.0625 L 532.441406 94.761719 L 511.351563 94.761719 L 500.121094 59.09375 L 500.222656 94.761719 L 479.035156 94.761719 L 478.761719 0.00390625 L 500.121094 0.00390625 L 511.261719 37.191406 L 511.261719 0.00390625 L 674.363281 0.00390625 "/>
</g>
<path style=" stroke:none;fill-rule:nonzero;fill:rgb(9.799194%,8.999634%,10.598755%);fill-opacity:1;" d="M 529.894531 99.417969 L 529.894531 99.824219 L 529.734375 99.824219 C 529.734375 99.660156 529.761719 99.527344 529.816406 99.417969 "/>
<path style=" stroke:none;fill-rule:nonzero;fill:rgb(8.198547%,23.899841%,45.098877%);fill-opacity:1;" d="M 252.773438 100.34375 L 252.773438 151.632813 L 238.480469 151.632813 L 238.480469 120.632813 L 230.835938 151.632813 L 222.164063 151.632813 L 213.664063 120.632813 L 213.664063 151.632813 L 202.503906 151.632813 L 202.503906 100.34375 L 223.503906 100.34375 L 226.503906 122.472656 L 229.503906 100.34375 "/>
<path style=" stroke:none;fill-rule:nonzero;fill:rgb(8.198547%,23.899841%,45.098877%);fill-opacity:1;" d="M 270.832031 134.054688 L 273.582031 115.554688 L 276.953125 134.054688 Z M 284.664063 100.34375 L 264.164063 100.34375 L 255.003906 151.632813 L 267.832031 151.632813 L 269.503906 143.972656 L 278.503906 143.972656 L 279.832031 151.632813 L 294.503906 151.632813 "/>
<path style=" stroke:none;fill-rule:nonzero;fill:rgb(8.198547%,23.899841%,45.098877%);fill-opacity:1;" d="M 290.207031 100.34375 L 299.957031 151.632813 L 318.957031 151.632813 L 327.707031 100.34375 L 314.582031 100.34375 L 310.332031 132.929688 L 305.082031 100.34375 "/>
<path style=" stroke:none;fill-rule:nonzero;fill:rgb(8.198547%,23.899841%,45.098877%);fill-opacity:1;" d="M 358.214844 142.554688 L 358.214844 151.632813 L 330.714844 151.632813 L 330.714844 100.183594 L 357.214844 100.183594 L 357.214844 109.804688 L 344.832031 109.804688 L 344.832031 119.421875 L 356.363281 119.421875 L 355.800781 128.804688 L 344.832031 128.804688 L 344.832031 142.554688 "/>
<path style=" stroke:none;fill-rule:nonzero;fill:rgb(8.198547%,23.899841%,45.098877%);fill-opacity:1;" d="M 381.453125 120.921875 C 381.453125 122.804688 380.003906 122.683594 380.003906 122.683594 L 375.582031 122.683594 L 375.582031 109.683594 C 375.582031 109.683594 377.714844 109.613281 379.523438 109.613281 C 381.332031 109.613281 381.453125 111.554688 381.453125 111.554688 Z M 389.582031 100.34375 L 361.582031 100.34375 L 361.582031 151.632813 L 375.453125 151.632813 L 375.453125 132.054688 L 380.332031 132.054688 C 380.332031 132.054688 381.453125 133.054688 381.453125 134.421875 L 381.453125 151.632813 L 395.082031 151.632813 L 395.082031 132.183594 C 395.082031 132.183594 394.453125 127.421875 390.332031 127.421875 L 390.332031 126.554688 C 390.332031 126.554688 395.082031 126.804688 395.082031 122.804688 L 395.082031 106.183594 C 395.082031 106.183594 395.714844 100.34375 389.582031 100.34375 "/>
<path style=" stroke:none;fill-rule:nonzero;fill:rgb(8.198547%,23.899841%,45.098877%);fill-opacity:1;" d="M 454.523438 145.792969 C 454.523438 145.792969 455.144531 151.632813 449.023438 151.632813 L 425.101563 151.632813 C 418.984375 151.632813 419.601563 145.792969 419.601563 145.792969 L 419.601563 134.683594 L 419.582031 134.683594 L 419.582031 118.921875 L 419.601563 118.921875 L 419.601563 106.183594 C 419.601563 106.183594 418.984375 100.34375 425.101563 100.34375 L 449.023438 100.34375 C 455.144531 100.34375 454.523438 106.183594 454.523438 106.183594 L 454.523438 120.804688 L 440.894531 120.804688 L 440.894531 112.324219 C 440.894531 111.554688 440.652344 109.28125 437.785156 109.28125 L 435.042969 109.28125 C 434.023438 109.28125 433.792969 110.34375 433.792969 110.84375 L 433.792969 141.011719 C 433.792969 141.511719 434.023438 142.574219 435.042969 142.574219 L 437.785156 142.574219 C 440.652344 142.574219 440.894531 140.304688 440.894531 139.53125 L 440.894531 131.171875 L 454.523438 131.171875 "/>
<path style=" stroke:none;fill-rule:nonzero;fill:rgb(8.198547%,23.899841%,45.098877%);fill-opacity:1;" d="M 400.332031 151.632813 L 414.332031 151.632813 L 414.332031 100.34375 L 400.332031 100.34375 Z M 400.332031 151.632813 "/>
<path style=" stroke:none;fill-rule:nonzero;fill:rgb(8.198547%,23.899841%,45.098877%);fill-opacity:1;" d="M 499.421875 151.632813 L 483.042969 151.632813 L 474.082031 125.984375 L 474.082031 151.632813 L 459.582031 151.632813 L 459.582031 100.34375 L 474.082031 100.34375 L 474.082031 123.042969 L 481.582031 100.34375 L 499.9375 100.34375 L 488.082031 124.554688 "/>
</g>
</svg>
